<svg width="200" height="100" xmlns="http://www.w3.org/2000/svg">
 <metadata id="metadata8">image/svg+xml</metadata>
 <defs>
  <clipPath clipPathUnits="userSpaceOnUse" id="clipPath18">
   <path d="m-384.800011,569.799999l1057,0l0,-425l-1057,0l0,425z" id="path20"/>
  </clipPath>
 </defs>
 <g>
  <title>background</title>
  <rect fill="none" id="canvas_background" height="102" width="202" y="-1" x="-1"/>
 </g>
 <g>
  <title>Layer 1</title>
  <g id="g10" transform="matrix(1.25,0,0,-1.25,-54,506.25) ">
   <path fill="#ffffff" fill-rule="nonzero" d="m-384.800011,144.799999l1057,0l0,425l-1057,0l0,-425z" id="path12"/>
   <g id="g14">
    <g id="g16" clip-path="url(#clipPath18)">
     <path fill="none" stroke="#fcfcfc" stroke-miterlimit="10" d="m672.199989,144.799999l-1057,0l0,425l1057,0l0,-425z" id="path22"/>
     <g id="g24">
      <path fill="#00aeef" fill-rule="nonzero" d="m155.373817,392.699993l0,9.794l6.016,0c4.67,0 7.87,-0.566 9.601,-1.697c1.733,-1.132 2.625,-2.913 2.679,-5.343c0.081,-3.644 0.136,-6.691 -8.88,-4.017c-3.068,0.934 -6.209,1.347 -9.416,1.263m0,9.8l-66.969,0c-9.801,0 -9.801,-5.608 -9.801,-8.983l0,-35.118c0,-7.487 11.434,-7.487 11.434,0.135l0,14.157l13.099,0c5.977,0 6.282,9.392 0.003,9.392l-13.51,0l0,10.617l65.744,0l0,9.8z" id="path26"/>
     </g>
     <g id="g28">
      <path fill="#00aeef" fill-rule="nonzero" d="m137.407997,389.180401l0,-29.238c0,-4.356 3.313,-8.622 6.534,-8.622c0,0 4.9,0.58 4.9,7.078l0,14.157l12.204,0c6.165,0 6.179,9.391 0,9.391l-12.613,0l0,7.234l-11.025,0z" id="path30"/>
     </g>
     <g id="g32">
      <path fill="#00aeef" fill-rule="nonzero" d="m137.407997,359.895794c0,-3.375 0,-8.983 9.801,-8.983l8.165,0l0,9.8l-6.941,0l-11.025,0l0,-0.817z" id="path34"/>
     </g>
     <g id="g36">
      <path fill="#00aeef" fill-rule="nonzero" d="m164.789772,361.976299c9.016,2.673 8.961,-0.374 8.88,-4.018c-0.054,-2.43 -0.946,-4.211 -2.679,-5.342c-1.731,-1.132 -4.931,-1.698 -9.601,-1.698l-6.016,0l0,9.794c3.207,-0.084 6.348,0.329 9.416,1.264" id="path38"/>
     </g>
     <g id="g40">
      <path fill="#002157" fill-rule="nonzero" d="m56.996376,329.716106l-1.051,0l0,14.883l10.922,0l0,-0.792l-9.871,0l0,-5.983l8.942,0l-0.024,-0.771l-8.918,0l0,-7.337z" id="path42"/>
     </g>
     <path fill="#002157" fill-rule="nonzero" d="m68.552989,344.598999l0.929,0l0,-14.883l-0.929,0l0,14.883z" id="path44"/>
     <path fill="#002157" fill-rule="nonzero" d="m73.585989,329.715999l-0.929,0l0,10.714l0.929,0l0,-10.714zm-0.928,14.883l0.929,0l0,-2.147l-0.929,0l0,2.147z" id="path46"/>
     <g id="g48">
      <path fill="#002157" fill-rule="nonzero" d="m86.095497,333.488506l0.953,0c-0.196,-1.215 -0.766,-2.192 -1.71,-2.934c-0.945,-0.74 -2.11,-1.109 -3.494,-1.109c-1.792,0 -3.217,0.497 -4.276,1.492c-1.059,0.996 -1.588,2.329 -1.588,3.999c0,1.727 0.517,3.115 1.552,4.167c1.034,1.051 2.446,1.576 4.238,1.576c1.418,0 2.566,-0.278 3.446,-0.834c0.977,-0.625 1.539,-1.535 1.685,-2.73l-0.928,0c0,0.834 -0.391,1.521 -1.173,2.063c-0.782,0.542 -1.792,0.814 -3.03,0.814c-1.417,0 -2.581,-0.456 -3.493,-1.368c-0.913,-0.912 -1.369,-2.079 -1.369,-3.499c0,-1.56 0.428,-2.783 1.283,-3.666c0.855,-0.885 2.065,-1.326 3.628,-1.326c1.091,0 2.041,0.303 2.847,0.912c0.806,0.608 1.283,1.422 1.429,2.443" id="path50"/>
     </g>
     <g id="g52">
      <path fill="#002157" fill-rule="nonzero" d="m89.271797,344.598904l0.929,0l0,-9.859l7.745,5.69l1.346,-0.002l-5.507,-3.991l5.895,-6.721l-1.277,-0.005l-5.321,6.101l-2.881,-2.09l0,-4.006l-0.929,0l0,14.883z" id="path54"/>
     </g>
     <g id="g56">
      <path fill="#002157" fill-rule="nonzero" d="m115.683388,333.926998l0,1.938c-0.376,-0.528 -1.536,-0.792 -3.48,-0.792c-1.585,0 -2.737,-0.215 -3.456,-0.646c-0.719,-0.431 -1.078,-1.091 -1.078,-1.98c0,-0.681 0.286,-1.245 0.858,-1.689c0.572,-0.444 1.364,-0.667 2.377,-0.667c1.52,0 2.712,0.382 3.578,1.147c0.801,0.709 1.201,1.605 1.201,2.689m0,-2.022c-0.441,-0.834 -1.07,-1.459 -1.887,-1.876c-0.816,-0.417 -1.796,-0.625 -2.94,-0.625c-1.355,0 -2.38,0.26 -3.074,0.781c-0.694,0.521 -1.041,1.262 -1.041,2.22c0,2.209 1.811,3.314 5.433,3.314c0.943,0 1.633,0.062 2.072,0.187c0.958,0.264 1.437,0.806 1.437,1.626c0,0.779 -0.329,1.383 -0.986,1.814c-0.658,0.431 -1.498,0.646 -2.52,0.646c-1.218,0 -2.164,-0.274 -2.838,-0.823c-0.674,-0.55 -1.01,-1.226 -1.01,-2.032l-0.929,0c0,1.056 0.383,1.896 1.149,2.521c0.846,0.681 2.076,1.022 3.689,1.022c2.916,0 4.374,-1.035 4.374,-3.106l0,-6.336c0,-0.556 0.276,-0.834 0.83,-0.834l0.66,0.062l0,-0.667l-0.701,-0.083c-1.146,0 -1.718,0.438 -1.718,1.314l0,0.875z" id="path58"/>
     </g>
     <g id="g60">
      <path fill="#002157" fill-rule="nonzero" d="m129.488075,329.716106l-0.929,0l0,6.879c0,2.265 -1.181,3.397 -3.542,3.397c-1.368,0 -2.468,-0.417 -3.299,-1.251c-0.831,-0.834 -1.246,-1.876 -1.246,-3.127l0,-5.898l-0.928,0l0,10.714l0.928,0l0,-2.418c0.278,0.778 0.833,1.417 1.666,1.918c0.833,0.5 1.772,0.75 2.818,0.75c1.486,0 2.613,-0.333 3.381,-1c0.767,-0.667 1.151,-1.648 1.151,-2.94l0,-7.024z" id="path62"/>
     </g>
     <g id="g64">
      <path fill="#002157" fill-rule="nonzero" d="m141.899208,335.000301c0,1.489 -0.419,2.694 -1.258,3.613c-0.839,0.919 -1.975,1.379 -3.409,1.379c-1.449,0 -2.589,-0.446 -3.42,-1.337c-0.831,-0.891 -1.246,-2.095 -1.246,-3.614c0,-1.476 0.427,-2.663 1.283,-3.562c0.855,-0.898 1.991,-1.346 3.408,-1.346c1.401,0 2.524,0.452 3.371,1.357c0.847,0.906 1.271,2.075 1.271,3.51m0,-2.908c-0.52,-0.91 -1.187,-1.579 -1.999,-2.006c-0.812,-0.428 -1.73,-0.641 -2.754,-0.641c-1.755,0 -3.112,0.491 -4.071,1.472c-0.959,0.981 -1.438,2.356 -1.438,4.124c0,1.727 0.496,3.098 1.487,4.114c0.991,1.017 2.34,1.525 4.046,1.525c1.073,0 2.043,-0.237 2.913,-0.709c0.869,-0.472 1.475,-1.16 1.816,-2.064l0,6.692l0.929,0l0,-14.883l-0.929,0l0,2.376z" id="path66"/>
     </g>
     <g id="g68">
      <path fill="#002157" fill-rule="nonzero" d="m164.621864,329.716106l-11.85,0l0,14.883l11.728,0l0,-0.792l-10.653,0l0,-5.983l10.018,0l0,-0.771l-10.018,0l0,-6.545l10.775,0l0,-0.792z" id="path70"/>
     </g>
     <g id="g72">
      <path fill="#002157" fill-rule="nonzero" d="m174.639503,333.926998l0,1.938c-0.376,-0.528 -1.536,-0.792 -3.48,-0.792c-1.585,0 -2.737,-0.215 -3.456,-0.646c-0.719,-0.431 -1.078,-1.091 -1.078,-1.98c0,-0.681 0.285,-1.245 0.858,-1.689c0.572,-0.444 1.364,-0.667 2.377,-0.667c1.519,0 2.712,0.382 3.578,1.147c0.801,0.709 1.201,1.605 1.201,2.689m0,-2.022c-0.441,-0.834 -1.07,-1.459 -1.887,-1.876c-0.816,-0.417 -1.797,-0.625 -2.94,-0.625c-1.356,0 -2.38,0.26 -3.074,0.781c-0.695,0.521 -1.041,1.262 -1.041,2.22c0,2.209 1.81,3.314 5.433,3.314c0.943,0 1.632,0.062 2.072,0.187c0.958,0.264 1.437,0.806 1.437,1.626c0,0.779 -0.329,1.383 -0.986,1.814c-0.658,0.431 -1.498,0.646 -2.521,0.646c-1.218,0 -2.164,-0.274 -2.837,-0.823c-0.674,-0.55 -1.01,-1.226 -1.01,-2.032l-0.929,0c0,1.056 0.383,1.896 1.148,2.521c0.847,0.681 2.077,1.022 3.69,1.022c2.916,0 4.374,-1.035 4.374,-3.106l0,-6.336c0,-0.556 0.276,-0.834 0.83,-0.834l0.66,0.062l0,-0.667l-0.701,-0.083c-1.146,0 -1.718,0.438 -1.718,1.314l0,0.875z" id="path74"/>
     </g>
     <g id="g76">
      <path fill="#002157" fill-rule="nonzero" d="m179.428505,329.716106l-0.929,0l0,10.714l0.929,0l0,-2.523c0.325,0.821 0.924,1.456 1.795,1.908c0.872,0.452 1.771,0.677 2.7,0.677l0.415,0l0,-0.75l-0.317,0c-1.336,0 -2.436,-0.389 -3.298,-1.168c-0.864,-0.778 -1.295,-1.778 -1.295,-3.001l0,-5.857z" id="path78"/>
     </g>
     <g id="g80">
      <path fill="#002157" fill-rule="nonzero" d="m195.236061,329.716106l-0.929,0l0,6.879c0,2.265 -1.18,3.397 -3.542,3.397c-1.368,0 -2.467,-0.417 -3.299,-1.251c-0.831,-0.834 -1.246,-1.876 -1.246,-3.127l0,-5.898l-0.928,0l0,10.714l0.928,0l0,-2.418c0.278,0.778 0.833,1.417 1.666,1.918c0.833,0.5 1.773,0.75 2.818,0.75c1.486,0 2.613,-0.333 3.381,-1c0.767,-0.667 1.151,-1.648 1.151,-2.94l0,-7.024z" id="path82"/>
     </g>
     <g id="g84">
      <path fill="#002157" fill-rule="nonzero" d="m118.067696,370.262005c1.353,0.864 2.331,1.592 2.935,2.184c0.603,0.591 0.905,1.305 0.905,2.143c0,0.824 -0.302,1.516 -0.905,2.073c-0.604,0.559 -1.363,0.838 -2.278,0.838c-0.915,0 -1.681,-0.286 -2.298,-0.857c-0.617,-0.571 -0.925,-1.243 -0.925,-2.014c0,-0.399 0.116,-0.828 0.348,-1.286c0.232,-0.459 0.52,-0.914 0.865,-1.366c0.345,-0.452 0.796,-1.024 1.353,-1.715m-2.029,-5.463c-1.353,-0.784 -2.365,-1.568 -3.034,-2.352c-0.67,-0.785 -1.005,-1.715 -1.005,-2.792c0,-0.612 0.123,-1.197 0.368,-1.754c0.245,-0.559 0.604,-1.077 1.075,-1.556c0.47,-0.479 1.018,-0.844 1.641,-1.097c0.623,-0.253 1.28,-0.379 1.969,-0.379c0.677,0 1.333,0.107 1.97,0.32c0.637,0.213 1.24,0.514 1.811,0.907c0.569,0.392 1.16,0.88 1.77,1.466c-1.181,1.09 -2.242,2.17 -3.183,3.239c-0.942,1.07 -2.069,2.403 -3.382,3.998m-5.63,9.551c0,1.236 0.321,2.362 0.965,3.38c0.643,1.016 1.588,1.824 2.835,2.422c1.246,0.598 2.712,0.897 4.396,0.897c1.671,0 3.117,-0.312 4.338,-0.936c1.219,-0.625 2.131,-1.443 2.735,-2.454c0.603,-1.009 0.905,-2.06 0.905,-3.15c0,-1.488 -0.491,-2.784 -1.472,-3.888c-0.982,-1.103 -2.427,-2.226 -4.337,-3.37c0.663,-0.784 1.279,-1.521 1.85,-2.213c0.57,-0.691 1.121,-1.336 1.651,-1.933c0.53,-0.599 1.015,-1.111 1.453,-1.536c0.198,0.372 0.507,1.07 0.924,2.093c0.418,1.024 0.81,1.762 1.174,2.214c0.365,0.451 0.879,0.678 1.542,0.678c0.623,0 1.174,-0.223 1.652,-0.668c0.477,-0.445 0.715,-0.987 0.715,-1.625c0,-0.585 -0.205,-1.413 -0.616,-2.482c-0.411,-1.071 -1.008,-2.257 -1.791,-3.56c0.491,-0.425 1.27,-1.069 2.338,-1.934c1.068,-0.864 1.724,-1.452 1.969,-1.764c0.246,-0.313 0.369,-0.728 0.369,-1.246c0,-0.692 -0.249,-1.274 -0.747,-1.745c-0.497,-0.472 -1.051,-0.707 -1.661,-0.707c-0.623,0 -1.227,0.199 -1.81,0.597c-0.584,0.399 -1.824,1.376 -3.72,2.931c-0.863,-0.811 -1.754,-1.475 -2.676,-1.993c-0.922,-0.519 -1.91,-0.905 -2.965,-1.158c-1.054,-0.251 -2.231,-0.377 -3.531,-0.377c-1.658,0 -3.146,0.242 -4.466,0.727c-1.32,0.485 -2.417,1.14 -3.293,1.964c-0.875,0.824 -1.525,1.737 -1.949,2.741c-0.425,1.004 -0.637,2.025 -0.637,3.061c0,0.997 0.159,1.911 0.477,2.742c0.319,0.83 0.767,1.581 1.344,2.253c0.576,0.671 1.286,1.308 2.128,1.914c0.842,0.604 1.82,1.192 2.935,1.765c-0.995,1.249 -1.748,2.362 -2.259,3.339c-0.51,0.977 -0.765,1.984 -0.765,3.021" id="path86"/>
     </g>
    </g>
   </g>
  </g>
 </g>
</svg>